<?xml version="1.0" standalone="no"?>
<!DOCTYPE svg PUBLIC "-//W3C//DTD SVG 20010904//EN"
 "http://www.w3.org/TR/2001/REC-SVG-20010904/DTD/svg10.dtd">
<svg version="1.0" xmlns="http://www.w3.org/2000/svg"
 width="519.000000pt" height="519.000000pt" viewBox="0 0 519.000000 519.000000"
 preserveAspectRatio="xMidYMid meet">
<metadata>
Created by potrace 1.14, written by Peter Selinger 2001-2017
</metadata>
<g transform="translate(0.000000,519.000000) scale(0.100000,-0.100000)"
fill="#000000" stroke="none">
<path d="M3208 4785 c-2 -2 -32 -6 -68 -10 -36 -4 -74 -9 -85 -11 -11 -3 -42
-9 -70 -14 -27 -6 -75 -18 -105 -27 -67 -20 -62 -19 -80 -25 -8 -3 -37 -14
-65 -23 -66 -23 -223 -102 -310 -155 -336 -205 -585 -537 -660 -879 -3 -11 -7
-31 -10 -42 -2 -12 -7 -54 -11 -93 -3 -39 -9 -74 -13 -78 -3 -4 -28 -9 -56
-12 -181 -19 -360 -62 -518 -125 -602 -241 -934 -716 -872 -1250 17 -145 49
-269 110 -421 125 -311 359 -596 625 -757 149 -90 342 -163 495 -188 48 -8
102 -17 125 -21 14 -3 93 -6 175 -8 124 -3 174 0 285 19 319 55 423 52 570
-19 65 -31 103 -65 245 -221 65 -70 105 -91 158 -80 55 12 86 53 120 160 15
48 19 69 32 200 10 92 16 139 20 155 2 8 6 33 10 55 3 22 10 58 16 80 6 22 13
49 15 60 7 36 12 57 62 255 72 283 97 405 108 539 9 98 12 134 13 148 1 7 29
14 69 18 94 10 273 49 367 80 187 63 373 177 521 321 80 78 160 173 225 269
104 153 205 394 243 581 61 300 24 558 -116 797 -160 274 -468 506 -828 623
-106 35 -238 67 -320 79 -25 3 -58 9 -75 12 -30 5 -342 12 -347 8z"/>
</g>
</svg>
