<?xml version="1.0" standalone="no"?>
<!DOCTYPE svg PUBLIC "-//W3C//DTD SVG 20010904//EN"
 "http://www.w3.org/TR/2001/REC-SVG-20010904/DTD/svg10.dtd">
<svg version="1.0" xmlns="http://www.w3.org/2000/svg"
 width="510.000000pt" height="510.000000pt" viewBox="0 0 510.000000 510.000000"
 preserveAspectRatio="xMidYMid meet">
<metadata>
Created by potrace 1.14, written by Peter Selinger 2001-2017
</metadata>
<g transform="translate(0.000000,510.000000) scale(0.100000,-0.100000)"
fill="#000000" stroke="none">
<path d="M2369 5095 c-2 -1 -33 -6 -69 -9 -110 -10 -203 -24 -245 -36 -16 -5
-46 -12 -65 -15 -33 -5 -159 -41 -245 -70 -147 -49 -388 -167 -534 -261 -437
-285 -787 -713 -979 -1199 -39 -99 -94 -270 -107 -332 -2 -10 -9 -40 -15 -68
-14 -59 -28 -142 -35 -205 -3 -25 -10 -76 -15 -115 -4 -38 -7 -164 -5 -280 4
-199 7 -243 21 -325 3 -19 8 -46 10 -60 87 -511 337 -1008 686 -1360 140 -142
338 -304 448 -368 25 -14 47 -29 50 -32 8 -8 46 -29 165 -90 146 -74 188 -92
330 -139 160 -53 266 -80 390 -97 22 -3 46 -7 53 -10 56 -18 414 -25 577 -11
110 9 166 18 320 52 39 8 72 15 75 15 18 -3 325 112 418 156 151 72 336 184
447 271 6 5 30 24 55 43 95 73 248 225 350 345 64 77 200 260 200 270 0 2 16
29 35 59 114 178 253 523 301 749 15 72 36 189 40 232 3 28 9 77 14 110 8 64
6 450 -4 523 -3 23 -13 84 -22 135 -8 51 -17 101 -19 112 -1 11 -11 49 -20 85
-9 36 -18 72 -20 81 -4 22 -63 200 -74 224 -6 11 -29 65 -52 120 -24 55 -60
131 -81 169 -21 38 -38 71 -38 73 0 2 -30 50 -66 106 -351 541 -868 919 -1476
1077 -62 16 -130 32 -152 36 -21 3 -47 7 -56 9 -10 2 -38 6 -62 10 -23 3 -59
8 -78 11 -41 6 -446 15 -451 9z"/>
</g>
</svg>
